<svg version="1.2" xmlns="http://www.w3.org/2000/svg" xmlns:xlink="http://www.w3.org/1999/xlink" overflow="visible" preserveAspectRatio="none" viewBox="0 0 1029 569" width="1029" height="569"><g transform="translate(1, 1)"><defs><path stroke="#E7E7E7" id="path-163854878962918993" d="M898.6526389690615 389.1584127234076 C898.6526389690615 389.1584127234076 976.2885002418199 49.43480828281232 976.2885002418199 49.43480828281232 C980.7299624007359 31.28139516573497 982.9667160709541 23.12782458074164 999.1815779209627 21.189079600031437 C999.1815779209627 21.189079600031437 1021.5459101049967 19.176993937485264 1021.5459101049967 19.176993937485264 C1021.5459101049967 19.176993937485264 1026.999999999999 0 1026.999999999999 0 C1026.999999999999 0 899.713334477432 0 899.713334477432 0 C899.713334477432 0 678.9412609014457 334.91500669238656 678.9412609014457 334.91500669238656 C678.9412609014457 334.91500669238656 677.4062967065533 334.91500669238656 677.4062967065533 334.91500669238656 C677.4062967065533 334.91500669238656 674.8747273663347 0 674.8747273663347 0 C674.8747273663347 0 553.0325381843138 0 553.0325381843138 0 C512.1653181896182 0 392.3900432157508 5.726950633808334 381.8407694587886 103.34977560821982 C378.25170912835165 136.61455790882613 389.4386819975969 170.00051177072675 422.509309328049 173.96728604046942 C440.5827917063197 176.84670498385958 457.60198761252406 164.59881111723496 460.49887202209084 146.5984568144241 C463.12978142502703 130.15738918195413 453.4905908232832 113.73864262656475 435.0549978938167 109.23935123218644 C425.3741485560943 106.87331706164875 407.21093966956306 104.18522163609158 405.6182941479317 90.86591606960077 C404.09935254380053 77.98984331942357 410.45070752141254 53.96917565546021 489.0222880946065 53.96917565546021 C489.0222880946065 53.96917565546021 570.5965021763888 53.96917565546021 570.5965021763888 53.96917565546021 C507.03488462798543 245.28950476340458 330.8697037302836 509.01940792063624 164.68339235845656 509.01940792063624 C111.55568591353722 509.01940792063624 26.892316333057682 494.9411857334063 26.892316333057682 413.7626171167625 C26.892316333057682 362.6632942288009 62.0042217264458 325.0490906227857 93.23545563754921 326.9176836469569 C106.69443187668679 327.733997323045 111.11025789038483 341.01503818596956 113.09065010842936 350.7374616171954 C116.88159508245305 369.26714431934494 132.97468524267887 379.4901976222341 149.5901118617094 377.5227541138492 C167.3880056788928 375.39906306590046 180.09712467042112 358.4796866388476 178.59100113889872 340.83646956932523 C175.7838432375929 307.81721911660526 149.44270402670927 295.10058263128894 117.25972822440973 295.10058263128894 C63.24757476948982 295.10058263128894 0 342.7146287693883 0 420.388788284387 C0 503.6208959924415 52.31055431611462 567.0000000000006 158.3608780442141 567.0000000000006 C370.34295832878246 567.0000000000006 550.9431923490955 236.59703960318075 598.2354712389028 53.96917565546021 C598.2354712389028 53.96917565546021 599.770435433795 53.96917565546021 599.770435433795 53.96917565546021 C599.770435433795 53.96917565546021 617.5811473235863 432.8152507676565 617.5811473235863 432.8152507676565 C617.5811473235863 432.8152507676565 650.5300029642566 432.8152507676565 650.5300029642566 432.8152507676565 C650.5300029642566 432.8152507676565 900.6105995600406 53.97555310605471 900.6105995600406 53.97555310605471 C900.6105995600406 53.97555310605471 902.1487682730855 53.97555310605471 902.1487682730855 53.97555310605471 C902.1487682730855 53.97555310605471 825.5159211819581 389.31147153767455 825.5159211819581 389.31147153767455 C821.7025445808688 406.12880875521597 817.5558980919529 416.00429100070863 802.6292525391195 417.67518305645234 C802.6292525391195 417.67518305645234 780.2745339095427 419.70002362018744 780.2745339095427 419.70002362018744 C780.2745339095427 419.70002362018744 775.30753077367 438.8802062829701 775.30753077367 438.8802062829701 C775.30753077367 438.8802062829701 928.0733201241854 438.8802062829701 928.0733201241854 438.8802062829701 C928.0733201241854 438.8802062829701 933.0339142237539 419.70002362018744 933.0339142237539 419.70002362018744 C933.0339142237539 419.70002362018744 907.7086072671099 417.67518305645234 907.7086072671099 417.67518305645234 C893.5382279981895 416.1605385402722 894.2239948827549 407.3245807416736 898.6526389690615 389.1584127234076 Z" vector-effect="non-scaling-stroke"/></defs><g transform="translate(0, 0)"><path d="M898.6526389690615 389.1584127234076 C898.6526389690615 389.1584127234076 976.2885002418199 49.43480828281232 976.2885002418199 49.43480828281232 C980.7299624007359 31.28139516573497 982.9667160709541 23.12782458074164 999.1815779209627 21.189079600031437 C999.1815779209627 21.189079600031437 1021.5459101049967 19.176993937485264 1021.5459101049967 19.176993937485264 C1021.5459101049967 19.176993937485264 1026.999999999999 0 1026.999999999999 0 C1026.999999999999 0 899.713334477432 0 899.713334477432 0 C899.713334477432 0 678.9412609014457 334.91500669238656 678.9412609014457 334.91500669238656 C678.9412609014457 334.91500669238656 677.4062967065533 334.91500669238656 677.4062967065533 334.91500669238656 C677.4062967065533 334.91500669238656 674.8747273663347 0 674.8747273663347 0 C674.8747273663347 0 553.0325381843138 0 553.0325381843138 0 C512.1653181896182 0 392.3900432157508 5.726950633808334 381.8407694587886 103.34977560821982 C378.25170912835165 136.61455790882613 389.4386819975969 170.00051177072675 422.509309328049 173.96728604046942 C440.5827917063197 176.84670498385958 457.60198761252406 164.59881111723496 460.49887202209084 146.5984568144241 C463.12978142502703 130.15738918195413 453.4905908232832 113.73864262656475 435.0549978938167 109.23935123218644 C425.3741485560943 106.87331706164875 407.21093966956306 104.18522163609158 405.6182941479317 90.86591606960077 C404.09935254380053 77.98984331942357 410.45070752141254 53.96917565546021 489.0222880946065 53.96917565546021 C489.0222880946065 53.96917565546021 570.5965021763888 53.96917565546021 570.5965021763888 53.96917565546021 C507.03488462798543 245.28950476340458 330.8697037302836 509.01940792063624 164.68339235845656 509.01940792063624 C111.55568591353722 509.01940792063624 26.892316333057682 494.9411857334063 26.892316333057682 413.7626171167625 C26.892316333057682 362.6632942288009 62.0042217264458 325.0490906227857 93.23545563754921 326.9176836469569 C106.69443187668679 327.733997323045 111.11025789038483 341.01503818596956 113.09065010842936 350.7374616171954 C116.88159508245305 369.26714431934494 132.97468524267887 379.4901976222341 149.5901118617094 377.5227541138492 C167.3880056788928 375.39906306590046 180.09712467042112 358.4796866388476 178.59100113889872 340.83646956932523 C175.7838432375929 307.81721911660526 149.44270402670927 295.10058263128894 117.25972822440973 295.10058263128894 C63.24757476948982 295.10058263128894 0 342.7146287693883 0 420.388788284387 C0 503.6208959924415 52.31055431611462 567.0000000000006 158.3608780442141 567.0000000000006 C370.34295832878246 567.0000000000006 550.9431923490955 236.59703960318075 598.2354712389028 53.96917565546021 C598.2354712389028 53.96917565546021 599.770435433795 53.96917565546021 599.770435433795 53.96917565546021 C599.770435433795 53.96917565546021 617.5811473235863 432.8152507676565 617.5811473235863 432.8152507676565 C617.5811473235863 432.8152507676565 650.5300029642566 432.8152507676565 650.5300029642566 432.8152507676565 C650.5300029642566 432.8152507676565 900.6105995600406 53.97555310605471 900.6105995600406 53.97555310605471 C900.6105995600406 53.97555310605471 902.1487682730855 53.97555310605471 902.1487682730855 53.97555310605471 C902.1487682730855 53.97555310605471 825.5159211819581 389.31147153767455 825.5159211819581 389.31147153767455 C821.7025445808688 406.12880875521597 817.5558980919529 416.00429100070863 802.6292525391195 417.67518305645234 C802.6292525391195 417.67518305645234 780.2745339095427 419.70002362018744 780.2745339095427 419.70002362018744 C780.2745339095427 419.70002362018744 775.30753077367 438.8802062829701 775.30753077367 438.8802062829701 C775.30753077367 438.8802062829701 928.0733201241854 438.8802062829701 928.0733201241854 438.8802062829701 C928.0733201241854 438.8802062829701 933.0339142237539 419.70002362018744 933.0339142237539 419.70002362018744 C933.0339142237539 419.70002362018744 907.7086072671099 417.67518305645234 907.7086072671099 417.67518305645234 C893.5382279981895 416.1605385402722 894.2239948827549 407.3245807416736 898.6526389690615 389.1584127234076 Z" style="stroke: rgb(0, 0, 0); stroke-width: 1; stroke-linecap: butt; stroke-linejoin: miter; fill: rgb(0, 0, 0);" vector-effect="non-scaling-stroke"/></g></g></svg>